<svg width="16" height="17" viewBox="0 0 16 17" fill="none" xmlns="http://www.w3.org/2000/svg">
<g clip-path="url(#clip0_14854_25)">
<path d="M8 0.100586C4.89838 0.100586 2.375 2.62396 2.375 5.72559C2.375 6.77352 2.66528 7.79621 3.21466 8.68346L7.67981 15.879C7.76534 16.0168 7.91603 16.1006 8.07809 16.1006C8.07934 16.1006 8.08056 16.1006 8.08181 16.1006C8.24528 16.0993 8.39628 16.013 8.48025 15.8727L12.8316 8.60746C13.3507 7.73896 13.625 6.74243 13.625 5.72559C13.625 2.62396 11.1016 0.100586 8 0.100586ZM12.0271 8.12615L8.071 14.7314L4.01147 8.18952C3.55419 7.45102 3.30625 6.59902 3.30625 5.72559C3.30625 3.1409 5.41531 1.03184 8 1.03184C10.5847 1.03184 12.6906 3.1409 12.6906 5.72559C12.6906 6.57312 12.459 7.40334 12.0271 8.12615Z" fill="black"/>
<path d="M8 2.91309C6.44919 2.91309 5.1875 4.17477 5.1875 5.72559C5.1875 7.26649 6.42866 8.53809 8 8.53809C9.59072 8.53809 10.8125 7.24955 10.8125 5.72559C10.8125 4.17477 9.55081 2.91309 8 2.91309ZM8 7.60684C6.96072 7.60684 6.11875 6.76205 6.11875 5.72559C6.11875 4.69171 6.96613 3.84434 8 3.84434C9.03387 3.84434 9.87813 4.69171 9.87813 5.72559C9.87813 6.74693 9.05575 7.60684 8 7.60684Z" fill="black"/>
</g>
<defs>
<clipPath id="clip0_14854_25">
<rect width="16" height="16" fill="white" transform="translate(0 0.100586)"/>
</clipPath>
</defs>
</svg>
