<svg width="16" height="17" viewBox="0 0 16 17" fill="none" xmlns="http://www.w3.org/2000/svg">
<g clip-path="url(#clip0_14854_20)">
<path d="M8 0.100586C3.58888 0.100586 0 3.68946 0 8.10059C0 12.5117 3.58888 16.1006 8 16.1006C12.4111 16.1006 16 12.5117 16 8.10059C16 3.68946 12.4111 0.100586 8 0.100586ZM8 15.1006C4.14013 15.1006 1 11.9605 1 8.10059C1 4.24072 4.14013 1.10059 8 1.10059C11.8599 1.10059 15 4.24072 15 8.10059C15 11.9605 11.8599 15.1006 8 15.1006Z" fill="black"/>
<path d="M8.5 3.10059H7.5V8.3076L10.6465 11.4541L11.3535 10.7471L8.5 7.89354V3.10059Z" fill="black"/>
</g>
<defs>
<clipPath id="clip0_14854_20">
<rect width="16" height="16" fill="white" transform="translate(0 0.100586)"/>
</clipPath>
</defs>
</svg>
